<svg xmlns="http://www.w3.org/2000/svg" xmlns:xlink="http://www.w3.org/1999/xlink" width="494" height="142.509" viewBox="0 0 494 142.509">
  <defs>
    <clipPath id="clip-path">
      <rect width="344" height="101" fill="none"/>
    </clipPath>
  </defs>
  <g id="Group_1" data-name="Group 1" transform="translate(-178 -136.921)">
    <g id="Component_1_1" data-name="Component 1 – 1" transform="translate(328 158)" clip-path="url(#clip-path)">
      <g id="Group_1-2" data-name="Group 1" transform="translate(-343 -193)">
        <text id="BLOCKCHAIN" transform="translate(343 193)" font-size="52" font-family="Raleway-ExtraBold, Raleway" font-weight="800"><tspan x="0" y="49">BLOCKCHAIN</tspan></text>
        <text id="RESEARCH_LAB" data-name="RESEARCH LAB" transform="translate(343 253)" fill="#1788cb" font-size="35" font-family="Raleway-Regular, Raleway" letter-spacing="0.2em"><tspan x="0" y="33">RESEARCH LAB</tspan></text>
      </g>
    </g>
    <path id="Exclusion_2" data-name="Exclusion 2" d="M65.462,142.509v0h0V114.685c-1.006.071-2.025.107-3.028.107-.965,0-1.94-.033-2.9-.1V67.087L25.316,49.746a43.648,43.648,0,0,1,3.99-5.847h0L1.835,30.169,62.195,0,97.4,17.6l25.149,12.57L95.426,43.727A43.635,43.635,0,0,1,99.585,49.8L65.463,67.087v47.6c22.314-1.579,39.793-20.594,39.793-43.29a43.841,43.841,0,0,0-5.672-21.6L125,36.918V112.34L65.463,142.509ZM29.306,43.9,62.195,60.337l33.232-16.61a42.465,42.465,0,0,0-66.121.172Zm30.231,98.61h0L0,112.34V36.918L25.316,49.746a43.83,43.83,0,0,0-5.7,21.649c0,22.763,17.536,41.782,39.922,43.3v27.814Z" transform="translate(178 136.921)" fill="#1788cb"/>
  </g>
</svg>
